<?xml version="1.0" encoding="utf-8"?><svg xmlns="http://www.w3.org/2000/svg" xmlns:xlink="http://www.w3.org/1999/xlink"><symbol viewBox="0 0 54.757 54.757" id="contacts-address"><path d="M27.557 12c-3.859 0-7 3.141-7 7s3.141 7 7 7 7-3.141 7-7-3.141-7-7-7zm0 12c-2.757 0-5-2.243-5-5s2.243-5 5-5 5 2.243 5 5-2.243 5-5 5z"/><path d="M40.94 5.617A19.052 19.052 0 0 0 27.38 0a19.05 19.05 0 0 0-13.56 5.617c-6.703 6.702-7.536 19.312-1.804 26.952L27.38 54.757 42.721 32.6c5.755-7.671 4.922-20.281-1.781-26.983zm.159 25.814L27.38 51.243 13.639 31.4C8.44 24.468 9.185 13.08 15.235 7.031 18.479 3.787 22.792 2 27.38 2s8.901 1.787 12.146 5.031c6.05 6.049 6.795 17.437 1.573 24.4z"/></symbol><symbol viewBox="0 0 205.996 205.996" id="contacts-email"><path d="M102.996 61.363c22.958 0 41.635 18.678 41.635 41.635a6 6 0 0 0 12 0c0-29.574-24.061-53.635-53.635-53.635S49.36 73.424 49.36 102.998s24.061 53.635 53.635 53.635c18.99 0 36.745-10.195 46.336-26.607a6 6 0 0 0-10.361-6.055c-7.448 12.745-21.233 20.662-35.976 20.662-22.958 0-41.635-18.678-41.635-41.635s18.679-41.635 41.637-41.635z"/><path d="M205.698 95.053c-3.76-50.059-44.326-90.782-94.359-94.727C81.095-2.059 51.51 8.817 30.163 30.165 8.815 51.513-2.061 81.1.324 111.341c3.931 49.847 44.483 90.399 94.329 94.329 2.747.217 5.484.323 8.214.323 27.329 0 53.553-10.753 72.962-30.161a6 6 0 0 0-8.485-8.486c-18.862 18.861-45.012 28.47-71.747 26.361-44.023-3.471-79.838-39.286-83.31-83.31-2.108-26.735 7.5-52.887 26.361-71.747 18.861-18.861 45.008-28.473 71.747-26.361 44.189 3.483 80.016 39.451 83.337 83.662a93.044 93.044 0 0 1-.397 18.086 19.122 19.122 0 0 1-10.208 14.713c-5.095 2.633-10.819 2.623-15.706-.026a5.996 5.996 0 0 0-8.134 2.415 5.998 5.998 0 0 0 2.415 8.134c8.435 4.573 18.251 4.623 26.933.139a31.108 31.108 0 0 0 16.613-23.935c.812-6.719.963-13.59.45-20.424z"/></symbol><symbol viewBox="0 0 405.333 405.333" id="contacts-tel"><path d="M373.333 266.88c-25.003 0-49.493-3.904-72.725-11.584-11.328-3.904-24.171-.896-31.637 6.699l-46.016 34.752c-52.779-28.16-86.571-61.931-114.389-114.368l33.813-44.928c8.512-8.533 11.563-20.971 7.915-32.64C142.592 81.472 138.667 56.96 138.667 32c0-17.643-14.357-32-32-32H32C14.357 0 0 14.357 0 32c0 205.845 167.488 373.333 373.333 373.333 17.643 0 32-14.357 32-32V298.88c0-17.643-14.357-32-32-32zM384 373.333c0 5.888-4.8 10.667-10.667 10.667-194.091 0-352-157.909-352-352 0-5.888 4.8-10.667 10.667-10.667h74.667c5.867 0 10.667 4.779 10.667 10.667 0 27.243 4.267 53.995 12.629 79.36 1.237 3.989.235 8.107-3.669 12.16l-38.827 51.413a10.665 10.665 0 0 0-.981 11.264c31.637 62.144 70.059 100.587 132.651 132.651 3.605 1.877 8.021 1.493 11.285-.981l52.523-39.808a10.7 10.7 0 0 1 10.859-2.539c25.515 8.427 52.267 12.693 79.531 12.693 5.867 0 10.667 4.779 10.667 10.667v74.453z"/></symbol><symbol viewBox="0 0 139.4 44.7" id="dorohovdesign"><path d="M52.2 19.5V8.1H57c3.6 0 6.1 2.1 6.1 5.7 0 3.5-2.6 5.7-6.1 5.7h-4.8zm7.9-5.7c0-1.8-1.1-3.1-3.1-3.1h-1.9v6.2H57c2 0 3.1-1.4 3.1-3.1m4.1 0c0-3.4 2.6-5.9 6.1-5.9 3.5 0 6.1 2.4 6.1 5.9 0 3.5-2.6 5.9-6.1 5.9-3.5 0-6.1-2.4-6.1-5.9m9.2 0c0-1.9-1.2-3.3-3.1-3.3-1.9 0-3.1 1.4-3.1 3.3 0 1.8 1.2 3.3 3.1 3.3 1.9 0 3.1-1.4 3.1-3.3m11 5.7l-1.9-3.8H81v3.8h-2.9V8.1h5.7c2.5 0 3.9 1.7 3.9 3.8 0 2-1.2 3-2.3 3.4l2.3 4.2h-3.3zm.3-7.6c0-.8-.6-1.2-1.4-1.2H81v2.4h2.3c.8 0 1.4-.4 1.4-1.2m4.2 1.9c0-3.4 2.6-5.9 6.1-5.9 3.5 0 6.1 2.4 6.1 5.9 0 3.5-2.6 5.9-6.1 5.9-3.5 0-6.1-2.4-6.1-5.9m9.1 0c0-1.9-1.2-3.3-3.1-3.3-1.9 0-3.1 1.4-3.1 3.3 0 1.8 1.2 3.3 3.1 3.3 1.9 0 3.1-1.4 3.1-3.3m12.4 5.7v-4.6h-4.7v4.6h-3V8.1h3v4.3h4.7V8.1h2.9v11.4zm4.6-5.7c0-3.4 2.6-5.9 6.1-5.9 3.5 0 6.1 2.4 6.1 5.9 0 3.5-2.6 5.9-6.1 5.9-3.5 0-6.1-2.4-6.1-5.9m9.2 0c0-1.9-1.2-3.3-3.1-3.3-1.9 0-3.1 1.4-3.1 3.3 0 1.8 1.2 3.3 3.1 3.3 1.9 0 3.1-1.4 3.1-3.3m7.3 5.7l-4.3-11.4h3.3l2.8 8.2 2.8-8.2h3.3l-4.2 11.4zm-79.3 17V25.1H57c3.6 0 6.1 2.1 6.1 5.7 0 3.5-2.6 5.7-6.1 5.7h-4.8zm7.9-5.7c0-1.8-1.1-3.1-3.1-3.1h-1.9v6.2H57c2 0 3.1-1.4 3.1-3.1m4.7 5.7V25.1h8.3v2.6h-5.3v1.8H73V32h-5.2v1.9h5.3v2.6zm9.6-1.6l1.5-2.2c.8.8 2.1 1.5 3.6 1.5 1 0 1.6-.4 1.6-.9 0-1.5-6.4-.3-6.4-4.7 0-1.9 1.6-3.6 4.5-3.6 1.8 0 3.4.5 4.6 1.6l-1.6 2.1c-1-.8-2.2-1.2-3.3-1.2-.8 0-1.2.3-1.2.8 0 1.4 6.4.4 6.4 4.6 0 2.3-1.7 3.8-4.7 3.8-2.2 0-3.8-.7-5-1.8m11.5-9.8h2.9v11.3h-2.9zm4.7 5.7c0-3.6 2.8-5.9 6.1-5.9 2.5 0 4.1 1.3 4.8 2.8L99.1 29c-.4-.7-1.3-1.4-2.4-1.4-1.9 0-3.2 1.4-3.2 3.3s1.3 3.3 3.2 3.3c.8 0 1.7-.3 2.1-.7v-.9h-2.6V30h5.5v4.5c-1.2 1.3-2.9 2.2-5 2.2-3.4 0-6.1-2.3-6.1-5.9m20.9 5.7l-4.8-6.6v6.6h-2.9V25.1h3l4.6 6.3v-6.3h2.9v11.4zM17.7 0H0v44.7h17.8c15 0 24.6-8.8 24.6-22.4C42.4 8.7 32.7 0 17.7 0m-.4 35.7h-8V9.5h8c9.3 0 15.7 3.7 15.7 12.7.1 7.5-5.8 13.5-15.7 13.5"/><path d="M19.1 17H17v10.6h2c4 0 6.4-2.4 6.4-5.4 0-3.7-2.6-5.2-6.3-5.2"/></symbol><symbol viewBox="0 0 96.124 96.123" id="fb"><path d="M72.089.02L59.624 0C45.62 0 36.57 9.285 36.57 23.656v10.907H24.037a1.96 1.96 0 0 0-1.96 1.961v15.803a1.96 1.96 0 0 0 1.96 1.96H36.57v39.876a1.96 1.96 0 0 0 1.96 1.96h16.352a1.96 1.96 0 0 0 1.96-1.96V54.287h14.654a1.96 1.96 0 0 0 1.96-1.96l.006-15.803a1.963 1.963 0 0 0-1.961-1.961H56.842v-9.246c0-4.444 1.059-6.7 6.848-6.7l8.397-.003a1.96 1.96 0 0 0 1.959-1.96V1.98A1.96 1.96 0 0 0 72.089.02z"/></symbol><symbol viewBox="0 0 97 68" id="icon-play"><path d="M95.201 10.862c-1.186-5.152-5.4-8.953-10.473-9.52C72.715 0 60.556-.006 48.453 0 36.348-.006 24.187 0 12.174 1.34c-5.07.568-9.281 4.369-10.467 9.52C.019 18.2 0 26.209 0 33.762c0 7.555 0 15.563 1.688 22.899 1.184 5.15 5.396 8.952 10.469 9.52 12.012 1.342 24.172 1.349 36.277 1.342 12.107.007 24.264 0 36.275-1.342 5.07-.567 9.285-4.368 10.471-9.52 1.689-7.337 1.695-15.345 1.695-22.898 0-7.554.014-15.563-1.674-22.9zM35.936 48.798V16.76a497491.15 497491.15 0 0 0 30.798 16.068c-10.3 5.342-20.504 10.63-30.798 15.969z"/><path d="M35.936 16.76v32.038l30.798-15.97a497491.15 497491.15 0 0 1-30.798-16.067z"/><path d="M35.936 16.76v32.038l30.798-15.97a497491.15 497491.15 0 0 1-30.798-16.067z"/><path d="M38 19v28c9.025-4.665 17.97-9.288 27-13.957-9.058-4.71-18-9.361-27-14.043z" fill="#F2F2F2"/></symbol><symbol viewBox="0 0 16 17" id="icon-search"><path d="M15.757 15.484l-3.944-4.208a6.949 6.949 0 0 0 1.57-4.412C13.382 3.079 10.38 0 6.69 0 3.001 0 0 3.08 0 6.864s3.002 6.863 6.691 6.863a6.505 6.505 0 0 0 3.834-1.242l3.974 4.24a.856.856 0 0 0 1.234.025.913.913 0 0 0 .024-1.266zM6.69 1.791c2.727 0 4.946 2.275 4.946 5.073 0 2.797-2.219 5.073-4.946 5.073S1.746 9.66 1.746 6.864c0-2.798 2.218-5.073 4.945-5.073z"/></symbol><symbol viewBox="0 0 97.395 97.395" id="inst"><path d="M12.501 0h72.393c6.875 0 12.5 5.09 12.5 12.5v72.395c0 7.41-5.625 12.5-12.5 12.5H12.501C5.624 97.395 0 92.305 0 84.895V12.5C0 5.09 5.624 0 12.501 0zm58.447 10.821a4.395 4.395 0 0 0-4.383 4.385v10.495a4.396 4.396 0 0 0 4.383 4.385h11.008a4.398 4.398 0 0 0 4.385-4.385V15.206a4.397 4.397 0 0 0-4.385-4.385H70.948zm15.439 30.367h-8.572a28.486 28.486 0 0 1 1.25 8.355c0 16.2-13.556 29.332-30.275 29.332-16.718 0-30.272-13.132-30.272-29.332 0-2.904.438-5.708 1.25-8.355h-8.945v41.141a3.884 3.884 0 0 0 3.872 3.872h67.822a3.883 3.883 0 0 0 3.872-3.872V41.188h-.002zM48.789 29.533c-10.802 0-19.56 8.485-19.56 18.953s8.758 18.953 19.56 18.953c10.803 0 19.562-8.485 19.562-18.953s-8.758-18.953-19.562-18.953z"/></symbol><symbol viewBox="0 0 120 8" id="link-more"><path d="M118.896 4.626a.5.5 0 0 0 0-.707L115.714.737a.5.5 0 1 0-.707.707l2.828 2.828-2.828 2.829a.5.5 0 0 0 .707.707l3.182-3.182zM.458 4.772h118.084v-1H.458v1z"/></symbol><symbol viewBox="0 0 500 311.1" id="logotip"><path fill-rule="evenodd" clip-rule="evenodd" d="M237.4 54.2l-12.5 26.5 65.1-.2.2-.3-52.8-26zm57.2 27.6l25.9 51 15.2-31.1-41.1-19.9zm66.4 18.7l8.7 14.3L239.2 52c-1-.5-2-1-3-1.6v.1L218 41.7v-.1h-.2l-2.9-1.4L361 100.5zM171.8 19.6l9.2-5.9 168.2 67.5 9.3 15.3-186.7-76.9zM27.2 54.2L14.8 11.6 108.6 0 27.2 54.2zm2.3 8.2L28 56.9 113.2.3 166 20.2l4.8 2 41.7 20.1-183 20.1zm102.8 73H66.1l-20.9-19.2L30.3 65l149.6-16.5-47.6 86.9zm63.8 0h-60.7l47.8-87.2 33.8-3.7 17.8 8.6-13.7 29.1-25 53.2zm52.6 0h-49.5l23.6-50.2 25.9 50.2zm10.5 0h-7.4l-26.9-52 63.6-.2-29.3 52.2zm59.6 0h-56.4L292 82.7l26.8 52.7zm83.9 0h-80.3l15.9-32.7 49.9 24 14.5 8.7zm56.8 93.4l-13.5-8.6-59 18.3 20.5 7.6 52-17.3zm-4 82.3l8.5-62-1.7-18.3-54.9 18.1-25.2-9.3-85.8-18.3 33.2 64.1 125.9 25.7zm-294.9-57.4l5.1 5.7 183.1 43.3 23-6-.4.1-210.8-43.1zm131.3-35.1l-163.7-.6 29.2 32.2 168.8 34.5-33.2-64.1-1.1-2zm148 .5l-143.2-.5 86 18.3 57.2-17.8z"/><path d="M490.8 201.9h9.2v-50.4h-9.2v50.4zm-63 0h9.2l2.1-28.2c.3-3.3.1-7.9.1-7.9h.1s1.6 5 2.8 7.9l8.2 19.5h8l8.2-19.5c1.1-2.9 2.8-7.8 2.8-7.8h.1s-.2 4.5.1 7.8l2.1 28.2h9.2l-4.1-50.4H467l-9.9 24.9c-1.1 3-2.5 7.4-2.5 7.4h-.1s-1.3-4.4-2.5-7.4l-9.9-24.9h-9.7l-4.6 50.4zm-33.9-20.4l4.5-13.5c.9-2.8 2-7.8 2-7.8h.1s1.1 5 2 7.8l4.5 13.5h-13.1zM378 201.9h9.4l4.3-12.9h17.7l4.3 12.9h9.4l-17.7-50.4h-9.7L378 201.9zm-23.1 0h9.1v-42.6h16.6v-7.9h-42.2v7.9H355v42.6zm-61.6-25.5c0-9.8 7-17.3 16.6-17.3 9.7 0 16.6 7.5 16.6 17.3 0 10.2-7 18-16.6 18-9.6 0-16.6-7.8-16.6-18zm-9.4 0c0 14.8 10.8 26.4 26.1 26.4s26.1-11.6 26.1-26.4c0-14.4-10.8-25.7-26.1-25.7-15.3-.1-26.1 11.2-26.1 25.7zm-31.6.2v-17.2h8.7c5.2 0 8.3 3.3 8.3 8.5 0 5.3-3.1 8.7-8.5 8.7h-8.5zm-9.1 25.3h9.2v-17.4h10.3c9.4 0 16.1-6.8 16.1-16.6s-6.6-16.4-16.1-16.4h-19.5v50.4zm-43.2-6c4.5 4.5 11 6.9 17.3 6.9 10.8 0 16.8-6.7 16.8-14.9 0-16.1-23.5-13.6-23.5-23 0-3.5 3.1-5.8 7.7-5.8 4 0 8.3 1.9 11.1 4.4l4-7.5c-4-3.6-9.5-5.4-14.8-5.4-9.8 0-17.2 5.8-17.2 14.6 0 15.7 23.5 13.7 23.5 23.3 0 3.4-2.8 5.8-7.4 5.8-4.7 0-9.5-2.6-12.5-5.3l-5 6.9zm-48-19.5c0-9.8 7-17.3 16.6-17.3 9.7 0 16.6 7.5 16.6 17.3 0 10.2-7 18-16.6 18-9.6 0-16.6-7.8-16.6-18zm-9.4 0c0 14.8 10.8 26.4 26.1 26.4s26.1-11.6 26.1-26.4c0-14.4-10.8-25.7-26.1-25.7-15.3-.1-26.1 11.2-26.1 25.7zm-54.4.2c0 15.8 11.4 26.1 24.7 26.1 5.8 0 11.4-2.2 14.6-5.4h.1s-.1 1.1-.1 2.1v2.4h7.8v-26.6h-16v7.9h7.7v5.9c-3.3 3.2-8 5.3-12.6 5.3-9.4 0-16.9-7.2-16.9-18 0-9.4 6-17.3 17.3-17.3 4.8 0 10.3 2.1 13.4 4.8l4.5-6.8c-5.2-4.5-12.1-6.4-18.8-6.4-14.7 0-25.7 11.4-25.7 26zm-36.5 25.3H83V194H60.9v-13.6h17v-7.9h-17v-13.2h21v-7.9H51.7v50.5zm-35.8-20.4l4.5-13.5c.9-2.8 2-7.8 2-7.8h.1s1.1 5 2 7.8l4.5 13.5H15.9zM0 201.9h9.4l4.3-12.9h17.7l4.3 12.9H45l-17.7-50.4h-9.7L0 201.9z"/></symbol><symbol viewBox="0 0 371.23 371.23" id="modal-close"><path d="M371.23 21.213L350.018 0 185.615 164.402 21.213 0 0 21.213l164.402 164.402L0 350.018l21.213 21.212 164.402-164.402L350.018 371.23l21.212-21.212-164.402-164.403z"/></symbol><symbol viewBox="0 0 7 4" id="navbar-dropdown"><path d="M3.5 4a.488.488 0 0 1-.347-.144L.143.84a.492.492 0 0 1 0-.695.49.49 0 0 1 .694 0L3.5 2.814 6.163.144a.49.49 0 0 1 .693 0 .492.492 0 0 1 0 .695l-3.01 3.017A.488.488 0 0 1 3.5 4z"/></symbol><symbol viewBox="0 0 7 13" id="pagin-next"><path d="M6.892 6.76L.641 12.891a.379.379 0 0 1-.53 0 .362.362 0 0 1 0-.52L6.094 6.5.11.63a.362.362 0 0 1 0-.521A.38.38 0 0 1 .374 0a.37.37 0 0 1 .264.109l6.251 6.133a.361.361 0 0 1 .003.517z"/></symbol><symbol viewBox="0 0 7 13" id="pagin-prev"><path d="M.108 6.76l6.251 6.132a.379.379 0 0 0 .53 0 .362.362 0 0 0 0-.52L.906 6.5 6.89.63a.362.362 0 0 0 0-.521A.381.381 0 0 0 6.626 0a.37.37 0 0 0-.264.109L.111 6.242a.361.361 0 0 0-.003.517z"/></symbol><symbol viewBox="0 0 459.325 459.325" id="plus"><path d="M459.319 229.668c0 22.201-17.992 40.193-40.205 40.193H269.85v149.271c0 22.207-17.998 40.199-40.196 40.193-11.101 0-21.149-4.492-28.416-11.763-7.276-7.281-11.774-17.324-11.769-28.419l-.006-149.288H40.181c-11.094 0-21.134-4.492-28.416-11.774C4.501 250.817.006 240.769.006 229.668 0 207.471 17.992 189.475 40.202 189.475h149.267V40.202C189.469 17.998 207.471 0 229.671 0c22.192.006 40.178 17.986 40.19 40.187v149.288h149.282c22.196.012 40.165 17.996 40.176 40.193z"/></symbol><symbol viewBox="0 0 54 37" id="slick-left"><path d="M.736 20.268l16.069 16c.98.976 2.57.976 3.55 0a2.49 2.49 0 0 0 0-3.536L8.574 21H51.49c1.386 0 2.51-1.12 2.51-2.5S52.876 16 51.49 16H8.572L20.356 4.268c.98-.977.98-2.56 0-3.536A2.51 2.51 0 0 0 18.58 0a2.51 2.51 0 0 0-1.775.732l-16.07 16c-.98.977-.98 2.56 0 3.536z"/></symbol><symbol viewBox="0 0 54 37" id="slick-right"><path d="M53.264 16.732l-16.07-16a2.519 2.519 0 0 0-3.55 0c-.98.977-.98 2.56 0 3.536L45.427 16H2.511A2.506 2.506 0 0 0 0 18.5C0 19.88 1.124 21 2.51 21h42.917L33.644 32.732c-.98.977-.98 2.56 0 3.536A2.51 2.51 0 0 0 35.42 37a2.51 2.51 0 0 0 1.775-.732l16.07-16c.98-.977.98-2.56 0-3.536z"/></symbol><symbol viewBox="0 0 480.56 480.56" id="tel"><path d="M365.354 317.9c-15.7-15.5-35.3-15.5-50.9 0-11.9 11.8-23.8 23.6-35.5 35.6-3.2 3.3-5.9 4-9.8 1.8-7.7-4.2-15.9-7.6-23.3-12.2-34.5-21.7-63.4-49.6-89-81-12.7-15.6-24-32.3-31.9-51.1-1.6-3.8-1.3-6.3 1.8-9.4 11.9-11.5 23.5-23.3 35.2-35.1 16.3-16.4 16.3-35.6-.1-52.1-9.3-9.4-18.6-18.6-27.9-28-9.6-9.6-19.1-19.3-28.8-28.8-15.7-15.3-35.3-15.3-50.9.1-12 11.8-23.5 23.9-35.7 35.5-11.3 10.7-17 23.8-18.2 39.1-1.9 24.9 4.2 48.4 12.8 71.3 17.6 47.4 44.4 89.5 76.9 128.1 43.9 52.2 96.3 93.5 157.6 123.3 27.6 13.4 56.2 23.7 87.3 25.4 21.4 1.2 40-4.2 54.9-20.9 10.2-11.4 21.7-21.8 32.5-32.7 16-16.2 16.1-35.8.2-51.8-19-19.1-38.1-38.1-57.2-57.1zm-19.1-79.7l36.9-6.3c-5.8-33.9-21.8-64.6-46.1-89-25.7-25.7-58.2-41.9-94-46.9l-5.2 37.1c27.7 3.9 52.9 16.4 72.8 36.3 18.8 18.8 31.1 42.6 35.6 68.8zm57.7-160.4c-42.6-42.6-96.5-69.5-156-77.8l-5.2 37.1c51.4 7.2 98 30.5 134.8 67.2 34.9 34.9 57.8 79 66.1 127.5l36.9-6.3c-9.7-56.2-36.2-107.2-76.6-147.7z"/></symbol><symbol viewBox="0 0 60 59" id="view"><path fill-rule="evenodd" clip-rule="evenodd" d="M0 0h11v1H1v10H0V0zm60 0v11h-1V1H49V0h11zm0 59H49v-1h10V48h1v11zM0 59V48h1v10h10v1H0z"/><path d="M31.5 18a1 1 0 0 0-2 0v10.5H19a1 1 0 0 0 0 2h10.5V41a1 1 0 0 0 2 0V30.5H42a1 1 0 0 0 0-2H31.5V18z"/></symbol><symbol viewBox="0 0 304.36 304.36" id="vk"><path d="M261.945 175.576c10.096 9.857 20.752 19.131 29.807 29.982 4 4.822 7.787 9.798 10.684 15.394 4.105 7.955.387 16.709-6.746 17.184l-44.34-.02c-11.436.949-20.559-3.655-28.23-11.474-6.139-6.253-11.824-12.908-17.727-19.372-2.42-2.642-4.953-5.128-7.979-7.093-6.053-3.929-11.307-2.726-14.766 3.587-3.523 6.421-4.322 13.531-4.668 20.687-.475 10.441-3.631 13.186-14.119 13.664-22.414 1.057-43.686-2.334-63.447-13.641-17.422-9.968-30.932-24.04-42.691-39.971-22.895-31.021-40.428-65.108-56.186-100.15C-2.01 76.458.584 72.22 9.295 72.07c14.465-.281 28.928-.261 43.41-.02 5.879.086 9.771 3.458 12.041 9.012 7.826 19.243 17.402 37.551 29.422 54.521 3.201 4.518 6.465 9.036 11.113 12.216 5.142 3.521 9.057 2.354 11.476-3.374 1.535-3.632 2.207-7.544 2.553-11.434 1.146-13.383 1.297-26.743-.713-40.079-1.234-8.323-5.922-13.711-14.227-15.286-4.238-.803-3.607-2.38-1.555-4.799 3.564-4.172 6.916-6.769 13.598-6.769h50.111c7.889 1.557 9.641 5.101 10.721 13.039l.043 55.663c-.086 3.073 1.535 12.192 7.07 14.226 4.43 1.448 7.35-2.096 10.008-4.905 11.998-12.734 20.561-27.783 28.211-43.366 3.395-6.852 6.314-13.968 9.143-21.078 2.096-5.276 5.385-7.872 11.328-7.757l48.229.043c1.43 0 2.877.021 4.262.258 8.127 1.385 10.354 4.881 7.844 12.817-3.955 12.451-11.65 22.827-19.174 33.251-8.043 11.129-16.645 21.877-24.621 33.072-7.328 10.223-6.746 15.376 2.357 24.255zm0 0" fill-rule="evenodd" clip-rule="evenodd"/></symbol><symbol viewBox="0 0 512 512" id="yb"><path d="M490.24 113.92c-13.888-24.704-28.96-29.248-59.648-30.976C399.936 80.864 322.848 80 256.064 80c-66.912 0-144.032.864-174.656 2.912-30.624 1.76-45.728 6.272-59.744 31.008C7.36 138.592 0 181.088 0 255.904v.256c0 74.496 7.36 117.312 21.664 141.728 14.016 24.704 29.088 29.184 59.712 31.264C112.032 430.944 189.152 432 256.064 432c66.784 0 143.872-1.056 174.56-2.816 30.688-2.08 45.76-6.56 59.648-31.264C504.704 373.504 512 330.688 512 256.192v-.256c0-74.848-7.296-117.344-21.76-142.016zM192 352V160l160 96-160 96z"/></symbol></svg>