<svg version="1" xmlns="http://www.w3.org/2000/svg" width="346.667" height="346.667" viewBox="0 0 260.000000 260.000000"><path d="M49.9 40.4c-.3.3-4.8.9-15.9 2.1-1.4.1-4.7.5-7.5.9-2.7.4-6.6.9-8.5 1.1-1.9.3-6.4.8-10 1.1-3.6.3-6.8.9-7.1 1.2-.6.7 5.3 22.7 6.4 23.8.2.3 10.9-6.5 23.7-15.1C43.8 47 53.4 40 52.3 40c-1.1 0-2.2.2-2.4.4zM32.3 56.4C5.7 74.1 3.2 76.7 13.8 75.5c3.1-.3 7.7-.8 10.1-1 2.4-.2 6-.7 8-.9 2-.3 6.5-.8 10.1-1.1 3.6-.4 7.6-.8 9-1 1.4-.2 5.4-.6 9-1 3.6-.3 7.6-.8 9-1 1.4-.2 5.2-.7 8.5-1 3.3-.3 7.1-.8 8.5-1 1.4-.2 5.4-.6 9-1 3.6-.3 7.4-.7 8.5-1 1.1-.2 3.7-.4 5.8-.4 2-.1 3.7-.4 3.7-.9-.1-1.7-41.3-19.4-54-23.2-2.1-.6-6.1 1.7-26.7 15.4zM93.8 49.4c-1 .7-1.8 1.6-1.8 1.9 0 .2 6.3 3.1 14 6.2 8.2 3.4 13.7 6.2 13.3 6.8-.3.6-.1.7.5.3 1-.6 13.3 4.1 40.2 15.2 28.8 11.9 37.3 15.3 37.7 14.9.2-.3-.5-2-1.7-4-2-3.3-4.3-4.3-50.8-23.1C118.4 56.8 96.3 48 96 48c-.3 0-1.3.7-2.2 1.4zM103.4 67.1c-2.1.4-4.2.5-4.6.3-.6-.4-7 10.4-15.1 25.6-2.2 4.1-4.3 7.9-4.7 8.5-3.1 4.1-8.8 16.5-7.8 16.6.7.1 8.6.2 17.5.3l16.1.2 5-10.6c9.8-20.5 16-33.9 16.6-35.8.5-1.5-.3-2.3-4.1-4.1-4.9-2.2-9.7-2.5-18.9-1zM90.9 68.4c-.2.2-3.8.7-7.9 1.1-4.1.4-8.6.8-10 1-1.4.1-5.4.6-9 .9-3.6.4-7.6.9-9 1.1-1.4.2-5.4.6-9 1-3.6.4-7.6.8-9 1-1.4.2-5.2.6-8.5.9-3.3.4-8.5.9-11.5 1.3s-5.9.7-6.5.7c-1.5.1-1.3.9 2.9 15.9 3.8 13 4.2 13.9 8.5 18 8.3 7.6 6.6 7.1 26.8 7.2 15.3.1 18.6-.2 19.7-1.5.8-.8 3.7-6 6.6-11.5 2.9-5.5 5.6-10.5 6-11 .4-.6 2.4-4.2 4.5-8 2.1-3.9 5.1-9.3 6.7-12.2 1.5-2.9 2.8-5.4 2.8-5.7 0-.7-3.4-.8-4.1-.2z"/><path d="M130.9 70.5c2.3 1.4 4.5 2.5 4.8 2.5.2 0 6.8 3.1 14.6 6.9 23.7 11.6 48 23.2 51.5 24.7l3.3 1.5-2.3-4c-1.7-3-3.5-4.4-7.8-6.1-3-1.3-6.8-2.9-8.5-3.6-1.6-.7-13.6-5.6-26.5-11-12.9-5.3-25.5-10.5-27.9-11.5-6-2.6-6.5-2.4-1.2.6zM125.3 78.8c-1.8 3.8-3.3 7.1-3.3 7.3 0 .3 8.1.5 18 .5s18-.2 18-.5c-.1-.6-26.2-13.4-28.3-13.9-.6-.1-2.7 2.9-4.4 6.6zM122 88.8c0 1.3 14.4 27.9 15.7 28.9.8.6 2.1.9 2.9.6 1-.4 15.2-24.7 17.2-29.5.2-.5-7.8-.7-17.7-.6-10 .1-18.1.4-18.1.6zM157.1 93.7c-1.7 3.2-4.3 7.8-5.8 10.3-6.4 11.1-7.5 13.3-6.5 13.9.8.5 27.5.7 30.4.2.5-.1-13.2-28-14.7-29.9-.1-.1-1.6 2.4-3.4 5.5zM163 88.7c0 1.1 13.4 27.3 14 27.3.3 0 2.4-3.9 4.6-8.6l4.1-8.7-10.6-5.1c-5.8-2.8-10.9-5.2-11.3-5.4-.5-.2-.8 0-.8.5zM115.9 98.7c-7.2 15.3-8.9 19.3-8.1 19.4 1.8.3 27.2.4 27.2.1 0-.7-14.1-28.2-14.5-28.2-.2 0-2.3 3.9-4.6 8.7zM185.8 102.2c-.7 1.3-1.3 2.5-1.3 2.8-.1.3-1.5 3.3-3.3 6.7-2.8 5.5-3 6.3-1.5 6.4 9 .6 43.2.2 43-.5-.4-1.3-32.9-17.6-35-17.6-.4 0-1.2 1-1.9 2.2zM28.2 131.3c-.5.7-2.4 5.5-4.2 10.7-1.8 5.2-3.5 10.1-3.8 10.7-.2.8.4 1.3 1.7 1.3 1.5 0 2.5-.9 3.2-3 1-2.7 1.5-3 5.4-3 3.9 0 4.3.2 4.8 3 .5 2.3 1.2 3 3.1 3h2.4l-3.3-9c-1.8-5-3.1-9-2.9-9 .1 0-.3-1.2-1.1-2.7-1.5-2.9-3.9-3.8-5.3-2zm4.7 12.4c.1.8-.9 1.2-2.4 1.1-2.8-.3-3-1.1-1.3-5.9l1.1-3.3 1.3 3.4c.7 1.9 1.3 4.1 1.3 4.7zM44.5 130.9c-.3.2-.5 5.5-.5 11.8V154h7.3c5.9 0 7.4-.3 7.4-1.5 0-1.6-.3-1.7-6.2-1.9-3.8-.1-4-.3-4-3.1 0-2.7.3-3 3.8-3.3 2.8-.2 3.7-.8 3.7-2.2 0-1.4-.7-1.8-3.7-1.6-3.6.1-3.8-.1-4.1-3-.3-2.9-.1-3.1 3-3.2 6.1 0 6.8-.2 6.8-1.7 0-.8-.3-1.5-.7-1.6-3.2-.4-12.5-.4-12.8 0zM68 131.1c-3.6 1.3-7 6.8-7 11.3 0 7 5.3 12.3 11.9 11.8 1.4-.1 4.3-.2 6.4-.3H83l-.1-5.9c-.2-5.5-.3-5.8-2.9-6.2-3.5-.5-5 0-5 1.8 0 1.3 1.2 1.8 3.3 1.5 1.2-.2.8 2.6-.5 3.6-.7.6-2.6 1.3-4.1 1.7-2.3.5-3.4.1-5.7-2.3-4.5-4.4-3.8-9.8 1.4-12.6 2.8-1.5 3.9-1.6 6.6-.6 2.5.8 3.6.8 4.7 0 3.2-2.7-7.1-5.7-12.7-3.8zM92 132.1c-12.4 7.6-2.8 27 10.6 21.4 4.3-1.8 6-3.7 7.4-8.5.8-2.8.6-4.2-1.1-7.8-3.3-6.6-10.6-8.9-16.9-5.1zm9.2 2.8c.4 0 1.6 1.1 2.8 2.3 5.3 5.8-1.1 15.6-8.5 12.8-1.3-.5-3.1-2.3-4-3.9-1.9-3.7-1.9-3.5 0-7.1 2.2-4.2 4.3-5.1 9.7-4.1zM117.4 131.1c-5.6 2.8-4.6 9.6 1.7 12.4 5.3 2.4 6.4 3.9 4.3 5.9-1.6 1.7-4.6 1.4-7.1-.6-.8-.6-1.5-.3-2.3 1.2-1 1.8-.7 2.2 2.3 3.5 4.8 2 10.4.4 11.8-3.3 1.5-3.9-.3-6.8-5.6-9.4-2.8-1.4-4.5-2.9-4.5-3.9 0-2.3 3.1-3.2 6.4-1.9 2.1.8 2.8.7 3.3-.6.3-.8.2-1.9-.3-2.4-1.5-1.4-7.8-2-10-.9zM134.2 130.8c-.9.3-1.2 3.6-1.2 11.8 0 10.7.1 11.4 2 11.4 2.1 0 2.3-.7 2-5.3-.1-2.5.1-2.7 3.8-2.7 5.5 0 8.5-2.6 8.5-7.4 0-5.2-2.6-7.5-8.8-7.9-2.8-.2-5.6-.2-6.3.1zm10 5c1.8 1.8.5 5.5-2.3 6.3-1.5.3-3.1.4-3.7 0-.9-.6-1.4-5.9-.6-7.3.6-.9 5.4-.2 6.6 1zM158.3 131.8c-4.2 2-6.7 7.2-6 12.4 1.5 10.8 14.7 14 21.6 5.2 3.8-4.8 2.1-14-3.2-17.3-3-1.9-8.8-2-12.4-.3zm9.2 3.4c3.7 1.7 5.4 7.8 3.1 11.3-4.2 6.4-12.6 4.7-14-2.9-.7-3.7 1.1-7.3 4.3-8.5 3.5-1.3 3.6-1.3 6.6.1zM178.8 130.8c-1 .2-1.8 1-1.8 1.8 0 1.3 2.3 1.9 6.3 1.5 1.5-.2 1.7.9 1.7 9.8 0 9.4.1 10.1 2 10.1s2-.7 2-10.1v-10.1l3.8.4c3.1.2 3.7 0 3.7-1.6 0-1.8-.8-2-8-2.1-4.4 0-8.8.1-9.7.3zM204 130.4c0 .2-1.8 5.4-4 11.6-2.2 6.2-4 11.4-4 11.6 0 .2.9.4 2.1.4 1.3 0 2.3-1 3-3 1-2.7 1.6-3 5-3 3.5 0 4.1.3 5 3 .8 2.2 1.7 3 3.5 3 2 0 2.3-.3 1.6-1.8-.5-.9-2.4-6-4.2-11.2-1.8-5.2-3.4-9.6-3.5-9.8-.4-.4-4.5-1.1-4.5-.8zm3.1 7.3c.1 1.5.7 3.8 1.4 5.4.5 1.2 0 1.6-2 1.5-2.8-.1-2.9-.4-2-4.6.6-2.7 2.4-4.2 2.6-2.3zM221.5 131c-.5.9-1.2 6.1-2 15.7-.5 6.9-.5 7.3 1.5 7.3 1.1 0 2.1-.3 2.1-.8.2-.8.7-7.1.9-11.7.1-2.7.4-2.5 2.7 2.8 3.4 7.6 5.8 7.6 8.8-.1 1.1-2.8 2.2-5.2 2.5-5.2.5 0 .6 1.2.9 11 .1 3.6.4 4 2.6 4 1.5 0 2.3-.5 2-1.3-.3-1-1.4-15-1.5-19.8 0-2-3.7-3.2-4.7-1.6-.5.7-2 4.1-3.4 7.6l-2.6 6.4-2.8-7.1c-1.8-4.5-3.4-7.2-4.6-7.5-1.1-.3-2.1-.2-2.4.3zM249.2 130.8c-.6.5-1 5-.9 12 0 10.9.1 11.3 2.1 11 2-.3 2.1-.9 2.1-11.5 0-11-.6-13.1-3.3-11.5zM67.1 167.7c1.3 1.6 7.7 8.6 13 14.4 1.5 1.6 4.4 3 7.9 3.7 3 .7 8.7 1.9 12.5 2.8 3.9.8 8.6 1.7 10.5 2 1.9.3 4.3.7 5.2 1 1 .3 3 .7 4.4 1 2.3.4 54.1 11 56.9 11.7.6.1 1.1-.3 1.3-.8.2-1-14.9-31.4-17.4-35-1.4-1.9-2.9-2-48.5-2.2-44-.2-47-.2-45.8 1.4zM167.7 167.2c-.7.5-.3.8 1.1.9 1.2.1 2.5.2 3 .3.9.2 6.9 1.5 9.8 2 1.2.2 8.7 1.9 16.7 3.6l14.6 3.1 11.8-3.6c22-6.8 21.2-6.3 10.3-6.5-29-.5-66.3-.4-67.3.2z"/><path d="M172 185.6c5.1 9.9 9.6 18.3 10.1 18.8.4.5 8.1 2.4 17.1 4.2 9 1.8 25.1 5.1 35.8 7.3 10.7 2.2 19.6 3.9 19.7 3.7.4-.4 1.9-9.7 2.8-17.6.4-3 1-7.5 1.5-10 .9-4.8.7-16.7-.3-17.6-.3-.4-7.5 1.7-16 4.5l-15.4 5.1-6.6-2.5c-6.1-2.2-25.2-6.8-46.2-11-4.4-.9-8.8-1.8-9.9-2.1-1.4-.5.5 3.9 7.4 17.2z"/><path d="M241 170c-3 .9-9.7 3.1-14.7 4.6-5.1 1.6-9.3 3.2-9.3 3.6 0 .4 2.4 1.5 5.3 2.4l5.4 1.7 14.9-5 14.9-5-3.5-2.1c-4.2-2.6-5.8-2.6-13-.2zM86.1 188.5c1.8 1.8 0 1.4 66.5 17 15.4 3.6 30.8 7.3 34.4 8.2 6 1.4 6.9 1.4 12.3-.2 3.2-.9 5.7-1.8 5.5-2-.2-.2-3.9-1-8.3-1.9-4.4-.8-9.1-1.8-10.5-2.1-1.4-.3-3.6-.8-5-1.1-11.8-2.3-53.2-10.7-56-11.4-1.9-.5-5.1-1.1-7-1.4-1.9-.3-9.9-1.9-17.7-3.6-16.6-3.5-16.2-3.4-14.2-1.5z"/></svg>